<?xml version="1.0" standalone="no"?>
<!DOCTYPE svg PUBLIC "-//W3C//DTD SVG 20010904//EN"
 "http://www.w3.org/TR/2001/REC-SVG-20010904/DTD/svg10.dtd">
<svg version="1.0" xmlns="http://www.w3.org/2000/svg"
 width="128.000000pt" height="128.000000pt" viewBox="0 0 128.000000 128.000000"
 preserveAspectRatio="xMidYMid meet">
<metadata>
Created by potrace 1.11, written by Peter Selinger 2001-2013
</metadata>
<g transform="translate(0.000000,128.000000) scale(0.100000,-0.100000)"
fill="#000000" stroke="none">
<path d="M6 1264 c-3 -9 -6 -273 -6 -589 l0 -573 31 -12 c17 -7 58 -30 90 -52
l60 -38 549 0 550 0 0 628 c0 620 -2 652 -31 652 -3 0 -5 -12 -3 -27 l4 -28
-11 28 c-9 22 -17 27 -46 27 -31 0 -34 -2 -29 -22 l6 -23 -12 23 c-11 22 -16
23 -140 21 -70 0 -128 -2 -128 -4 0 -1 12 -23 26 -49 14 -25 23 -46 20 -46 -9
0 -110 61 -129 78 -19 17 -22 10 -6 -20 6 -11 8 -22 5 -25 -3 -3 -13 11 -22
31 -13 27 -24 36 -42 36 -25 0 -25 -1 -7 -67 3 -10 -4 1 -15 25 l-21 42 -109
0 c-61 0 -110 -3 -110 -7 1 -5 9 -24 19 -43 l19 -35 10 35 c10 33 10 31 11
-30 1 -74 9 -112 22 -104 5 3 9 -8 9 -24 0 -16 7 -51 15 -78 8 -27 15 -69 16
-94 1 -25 5 -58 10 -75 5 -21 6 -12 3 30 -4 55 -3 58 10 40 49 -65 45 -62 46
-37 0 13 -4 20 -10 17 -17 -10 -59 96 -66 164 -4 35 -3 61 2 60 25 -4 43 3 48
19 2 9 4 -12 3 -48 -1 -36 0 -92 2 -125 3 -46 6 -33 11 60 3 66 11 129 17 139
10 19 12 18 32 -15 26 -42 26 -49 2 -49 -11 0 -23 -5 -26 -11 -5 -7 4 -8 28
-4 31 6 36 4 55 -27 20 -32 21 -33 3 -36 -11 -2 -21 -12 -24 -23 -5 -19 -4
-20 12 -5 24 22 43 20 63 -8 17 -23 17 -24 -8 -30 -41 -11 -24 -15 23 -7 63
12 43 -3 -31 -23 -36 -10 -71 -25 -78 -33 -11 -14 -10 -15 11 -8 l24 7 -23
-33 c-22 -30 -22 -32 -4 -25 31 13 87 26 117 26 23 0 27 -4 27 -28 0 -39 41
-55 132 -50 40 2 80 6 88 8 9 3 15 -1 15 -10 0 -12 -20 -15 -116 -15 -74 0
-115 -4 -113 -10 3 -6 54 -10 125 -10 112 0 120 1 124 20 12 53 10 60 -13 63
-31 5 -23 26 11 30 l27 3 -4 -65 c-4 -74 -32 -130 -99 -203 -50 -54 -29 -56
45 -4 l56 39 -25 -57 c-29 -67 -85 -161 -126 -213 -16 -21 -25 -38 -20 -38 5
0 34 15 65 34 l56 34 -12 -42 c-29 -92 -54 -131 -109 -164 -107 -65 -292 -132
-363 -132 -40 0 -205 84 -347 178 -44 29 -76 59 -92 87 -32 53 -55 163 -60
275 -2 47 -6 93 -10 102 -7 18 1 23 62 42 18 6 22 2 28 -24 6 -29 25 -43 25
-18 0 9 3 9 12 0 7 -7 31 -12 54 -12 34 0 47 5 63 26 l21 27 0 -25 c0 -23 -6
-27 -63 -39 -34 -8 -70 -13 -79 -12 -11 2 -18 -4 -18 -13 0 -9 6 -14 13 -11 7
2 48 12 91 22 l78 17 -4 65 -4 65 33 -5 c40 -7 43 5 6 22 -22 10 -24 14 -12
22 12 7 11 9 -3 9 -13 0 -18 8 -18 28 0 15 -3 45 -6 67 l-5 40 18 -25 c61 -86
184 -190 222 -190 9 0 -2 9 -24 19 -46 21 -124 88 -156 133 -16 22 -23 49 -26
99 l-4 68 38 10 c21 5 47 11 59 13 20 3 19 6 -17 82 -21 43 -41 73 -43 65 -3
-8 -7 -23 -10 -34 -3 -11 -3 1 0 28 l5 47 -140 0 -141 0 0 -28 c0 -15 4 -42
10 -61 5 -20 6 -40 1 -49 -7 -12 -12 -7 -20 24 -6 21 -11 46 -11 54 -1 9 -6 5
-15 -10 -22 -38 -18 -15 5 30 l20 40 -74 0 c-58 0 -75 -3 -80 -16z m381 -26
c-3 -8 -6 -5 -6 6 -1 11 2 17 5 13 3 -3 4 -12 1 -19z m687 -145 c19 -23 19
-23 -2 -23 -17 0 -22 6 -22 27 0 14 1 24 3 22 1 -2 11 -14 21 -26z m-764 -23
c0 -22 -4 -40 -9 -40 -5 0 -16 -3 -25 -6 -14 -5 -14 -1 0 40 20 57 34 59 34 6z
m506 -19 c-3 -5 1 -11 9 -15 23 -8 18 -28 -6 -24 -12 2 -28 13 -37 26 -14 21
-13 22 12 22 15 0 25 -4 22 -9z m305 -51 c9 -19 19 -46 22 -60 6 -24 4 -25
-32 -22 -34 3 -40 8 -45 34 -3 17 -6 44 -6 60 0 25 4 29 22 26 15 -2 29 -16
39 -38z m-741 -20 c0 -33 -4 -40 -19 -40 -20 0 -31 18 -31 50 0 16 12 24 43
29 4 0 7 -17 7 -39z m-57 -12 c2 -19 0 -36 -7 -40 -7 -5 -4 -8 7 -8 9 0 17 -6
17 -14 0 -8 3 -21 6 -29 4 -12 -5 -18 -38 -26 -42 -10 -41 -10 20 -6 34 2 62
0 62 -4 0 -4 -6 -8 -12 -8 -7 0 -44 -3 -83 -6 -45 -4 -63 -3 -50 2 19 9 19 10
1 10 -15 1 -17 6 -12 32 3 17 6 44 6 60 0 33 31 69 59 69 13 0 20 -9 24 -32z
m535 7 c13 -29 6 -32 -20 -8 -21 19 -23 33 -5 33 8 0 19 -11 25 -25z m85 -6
c18 -1 18 -2 4 -6 -20 -5 -47 13 -47 31 0 6 5 3 11 -6 5 -10 20 -19 32 -19z
m-53 -4 c7 -9 8 -15 2 -15 -5 0 -12 7 -16 15 -3 8 -4 15 -2 15 2 0 9 -7 16
-15z m-667 -66 l-8 -64 -5 45 c-3 25 -2 47 3 48 4 2 7 13 7 25 0 11 2 18 5 15
3 -2 2 -34 -2 -69z m700 34 c-7 -2 -19 -2 -25 0 -7 3 -2 5 12 5 14 0 19 -2 13
-5z m-721 -97 c3 -25 -1 -31 -24 -37 -16 -4 -28 -5 -28 -3 0 3 8 35 17 72 17
66 17 67 24 32 4 -19 9 -48 11 -64z m182 46 c5 -16 3 -22 -7 -22 -14 0 -27 28
-27 58 0 19 25 -7 34 -36z m2 -133 c9 -16 -12 -33 -31 -25 -14 5 -15 9 -5 21
15 18 26 19 36 4z"/>
<path d="M850 1260 c30 -24 44 -25 36 -4 -3 9 -6 18 -6 20 0 2 -12 4 -27 4
l-28 0 25 -20z"/>
<path d="M806 375 c-3 -8 -12 -15 -19 -15 -8 0 -22 -9 -32 -20 -10 -11 -30
-20 -44 -20 -14 0 -35 -8 -46 -17 l-20 -16 20 8 c11 4 32 8 48 10 15 1 37 11
50 22 12 11 30 23 40 26 9 4 17 13 17 22 0 19 -6 19 -14 0z"/>
<path d="M496 320 c14 -14 37 -21 78 -24 53 -4 56 -3 37 11 -13 9 -32 12 -49
8 -17 -3 -35 0 -47 9 -29 22 -43 19 -19 -4z"/>
</g>
</svg>
